<?xml version="1.0" encoding="utf-8"?>
<!-- Generator: Adobe Illustrator 26.4.1, SVG Export Plug-In . SVG Version: 6.00 Build 0)  -->
<svg version="1.1" id="Layer_1" xmlns="http://www.w3.org/2000/svg" xmlns:xlink="http://www.w3.org/1999/xlink" x="0px" y="0px"
	 viewBox="0 0 512 384" style="enable-background:new 0 0 512 384;" xml:space="preserve">
<style type="text/css">
	.st0{display:none;fill:#FFFFFF;}
	.st1{fill:#35495E;fill-opacity:0;}
	.st2{opacity:0.8;fill:#41B883;enable-background:new    ;}
	.st3{opacity:0.8;fill:#35495E;enable-background:new    ;}
	.st4{fill:#35495E;stroke:#35495E;stroke-width:0.9174;stroke-linejoin:round;stroke-miterlimit:12.2315;}
	.st5{fill:#35495E;}
	.st6{fill:#FFFFFF;}
</style>
<g>
	<g>
		<defs>
			<polygon id="SVGID_1_" points="-414.8,-192.4 -413.8,-192.4 -414.8,-191.4 			"/>
		</defs>
		<clipPath id="SVGID_00000068640002394461856520000009536313333974305168_">
			<use xlink:href="#SVGID_1_"  style="overflow:visible;"/>
		</clipPath>
	</g>
</g>
<rect x="-415.8" y="-193.4" class="st0" width="800" height="600"/>
<g transform="translate(68.77259826660156,94.99999809265137)">
	<g transform="translate(0,0)">
		<g>
			<rect x="-46.7" y="24" class="st1" width="141.2" height="141.2"/>
			<path class="st2" d="M37.8,24C6.5,24.1-18.9,49.4-19,80.7v84.4H94.5V80.7C94.4,49.4,69.1,24.1,37.8,24z"/>
			<path class="st3" d="M37.8,24c-4.8,0-9.5,0.6-14.1,1.8c3.6-0.9,7.3-1.5,11-1.7h-81.3v113.5h84.4c31.2-0.1,56.5-25.3,56.7-56.5
				v-0.4C94.4,49.4,69.1,24.1,37.8,24z M-0.8,39.2l-1.1,1.1L-0.8,39.2z M17.7,27.7l-1.9,0.7L17.7,27.7z M15.1,28.8l-1.7,0.8
				L15.1,28.8z M12.6,29.9c-0.5,0.3-1.1,0.5-1.6,0.8C11.5,30.5,12,30.2,12.6,29.9z M10.2,31.2l-1.4,0.9L10.2,31.2z M7.8,32.7
				l-1.4,0.9L7.8,32.7z M5.6,34.2l-1.4,0.9L5.6,34.2z M1.2,37.5l-1.2,1L1.2,37.5z M-18.9,77.9c0,0.9-0.1,1.9-0.1,2.8
				C-19,79.8-19,78.8-18.9,77.9z M-2.8,41.2c-0.4,0.4-0.7,0.7-1,1.1C-3.5,41.9-3.1,41.5-2.8,41.2L-2.8,41.2z M-4.6,43.1l-1,1.1
				L-4.6,43.1z M-6.4,45.2l-0.9,1.2L-6.4,45.2z M-8,47.3c-0.3,0.4-0.6,0.8-0.9,1.2C-8.6,48.1-8.3,47.7-8,47.3z M-9.5,49.5
				c-0.3,0.4-0.5,0.8-0.8,1.2C-10.1,50.3-9.8,49.9-9.5,49.5z M-11,51.8c-0.3,0.4-0.5,0.8-0.7,1.3C-11.5,52.6-11.2,52.2-11,51.8
				L-11,51.8z M-12.3,54.1c-0.2,0.4-0.5,0.9-0.7,1.3C-12.8,55.1-12.6,54.6-12.3,54.1L-12.3,54.1z M-13.5,56.6
				c-0.2,0.5-0.4,0.9-0.6,1.4C-13.9,57.4-13.8,57-13.5,56.6L-13.5,56.6z M-14.6,59c-0.2,0.5-0.4,0.9-0.6,1.4
				C-15,59.9-14.8,59.5-14.6,59L-14.6,59z M-15.6,61.6c-0.2,0.5-0.3,0.9-0.5,1.4C-16,62.5-15.8,62.1-15.6,61.6z M-16.5,64.2
				c-0.2,0.5-0.3,1-0.4,1.4C-16.8,65.1-16.7,64.7-16.5,64.2L-16.5,64.2z M-17.2,66.8c-0.1,0.5-0.2,1-0.4,1.5
				C-17.5,67.8-17.4,67.3-17.2,66.8L-17.2,66.8z M-17.8,69.5c-0.1,0.5-0.2,1-0.3,1.6C-18.1,70.6-18,70-17.8,69.5L-17.8,69.5z
				 M-18.3,72.3c-0.1,0.6-0.1,1.1-0.2,1.7C-18.4,73.4-18.4,72.8-18.3,72.3L-18.3,72.3z M-18.7,75.1c0,0.6-0.1,1.3-0.1,1.9
				C-18.8,76.3-18.8,75.7-18.7,75.1L-18.7,75.1z"/>
		</g>
	</g>
	<g transform="translate(67.00000381469727,7.490100860595703)">
		<g transform="translate(0,0)">
			<g transform="scale(1.1400000000000001)">
				<g>
					<path class="st4" d="M67.1,41.9L67.1,41.9c0,0.4,0.1,0.8,0.1,1.2s0,0.8,0,1.2l0,0c0,2-0.4,3.8-1.1,5.6
						c-0.7,1.7-1.8,3.3-3.1,4.6c-1.3,1.3-2.8,2.3-4.6,3.1s-3.6,1.1-5.6,1.1l0,0c-2,0-3.8-0.4-5.6-1.1c-1.7-0.8-3.3-1.8-4.6-3.1
						c-1.3-1.3-2.3-2.8-3.1-4.6s-1.1-3.6-1.1-5.6l0,0c0-2,0.4-3.8,1.1-5.6c0.8-1.8,1.8-3.3,3.1-4.6c1.3-1.3,2.8-2.3,4.6-3.1
						c1.8-0.7,3.6-1.1,5.6-1.1l0,0c2,0,3.9,0.4,5.6,1.1c1.7,0.8,3.3,1.8,4.5,3.1l0,0l-3.2,3.4c-0.9-0.9-2-1.6-3.2-2.1
						s-2.4-0.7-3.7-0.7l0,0c-1.3,0-2.5,0.2-3.7,0.7s-2.2,1.2-3.1,2.1l0,0c-0.9,0.9-1.6,1.9-2.1,3.1c-0.5,1.2-0.7,2.4-0.7,3.7l0,0
						c0,1.3,0.2,2.5,0.7,3.7s1.2,2.2,2.1,3.1l0,0c0.9,0.9,2,1.6,3.1,2.1s2.4,0.7,3.7,0.7l0,0c1.3,0,2.5-0.2,3.7-0.7s2.2-1.2,3.2-2.1
						l0,0c1.2-1.3,2.1-2.8,2.5-4.4l0,0H49.5l1.2-4.8C50.7,41.9,67.1,41.9,67.1,41.9z M88.2,35.3L88.2,35.3H74.4V42h10.3l1.2,4.7
						H74.4v6.7h13.9v4.7H69.6V30.5h18.6V35.3z M102.9,34.7L102.9,34.7c-1.3,0-2.5,0.2-3.7,0.7s-2.2,1.2-3.1,2.1l0,0
						c-0.9,0.9-1.6,1.9-2.1,3.1c-0.5,1.2-0.7,2.4-0.7,3.7l0,0c0,1.3,0.2,2.5,0.7,3.7s1.2,2.2,2.1,3.1l0,0c0.9,0.9,1.9,1.6,3.1,2.1
						s2.4,0.7,3.7,0.7l0,0c1.3,0,2.5-0.2,3.7-0.7s2.2-1.2,3.1-2.1l0,0c0.9-0.9,1.6-2,2.1-3.1c0.5-1.2,0.7-2.4,0.7-3.7l0,0
						c0-1.3-0.2-2.5-0.7-3.7c-0.5-1.2-1.2-2.2-2.1-3.1l0,0c-0.9-0.9-2-1.6-3.1-2.1C105.4,34.9,104.2,34.7,102.9,34.7z M102.9,29.9
						L102.9,29.9c2,0,3.8,0.4,5.6,1.1c1.7,0.8,3.3,1.8,4.6,3.1c1.3,1.3,2.3,2.8,3.1,4.6c0.8,1.7,1.1,3.6,1.1,5.6l0,0
						c0,2-0.4,3.8-1.1,5.6c-0.8,1.7-1.8,3.3-3.1,4.6c-1.3,1.3-2.8,2.3-4.6,3.1c-1.8,0.8-3.6,1.1-5.6,1.1l0,0c-2,0-3.8-0.4-5.6-1.1
						c-1.8-0.8-3.3-1.8-4.6-3.1c-1.3-1.3-2.3-2.8-3.1-4.6c-0.8-1.8-1.1-3.6-1.1-5.6l0,0c0-2,0.4-3.8,1.1-5.6
						c0.8-1.8,1.8-3.3,3.1-4.6c1.3-1.3,2.8-2.3,4.6-3.1C99.1,30.3,100.9,29.9,102.9,29.9z M139.9,40.4L139.9,40.4
						c0,1-0.1,1.9-0.4,2.8c-0.3,0.9-0.6,1.7-1.1,2.5s-1.1,1.5-1.8,2.1c-0.7,0.6-1.5,1.1-2.3,1.5l0,0l5.6,8.8h-5.6l-5-7.8h-3.2
						l1.9-4.8h2c1.4,0,2.7-0.5,3.7-1.5l0,0c0.5-0.5,0.8-1.1,1.1-1.7c0.3-0.6,0.4-1.3,0.4-2l0,0c0-0.7-0.1-1.3-0.4-2
						c-0.3-0.6-0.6-1.2-1.1-1.7l0,0c-1-1-2.2-1.5-3.7-1.5l0,0h-5.6v2.6v7.8v4.8v7.8h-4.8v-7.8V37.8v-7.3H130c1.4,0,2.7,0.3,3.9,0.8
						s2.2,1.2,3.1,2.1c0.9,0.9,1.6,1.9,2.1,3.1C139.6,37.8,139.9,39.1,139.9,40.4z M170.6,41.9L170.6,41.9c0.1,0.4,0.1,0.8,0.1,1.2
						s0.1,0.8,0.1,1.2l0,0c0,2-0.4,3.8-1.1,5.6c-0.8,1.7-1.8,3.3-3.1,4.6s-2.8,2.3-4.6,3.1c-1.7,0.8-3.6,1.1-5.6,1.1l0,0
						c-2,0-3.8-0.4-5.6-1.1c-1.8-0.8-3.3-1.8-4.6-3.1s-2.3-2.8-3.1-4.6c-0.8-1.8-1.1-3.6-1.1-5.6l0,0c0-2,0.4-3.8,1.1-5.6
						c0.8-1.8,1.8-3.3,3.1-4.6c1.3-1.3,2.8-2.3,4.6-3.1c1.7-0.7,3.6-1.1,5.6-1.1l0,0c2,0,3.9,0.4,5.6,1.1c1.7,0.8,3.3,1.8,4.5,3.1
						l0,0l-3.3,3.4c-0.9-0.9-2-1.6-3.1-2.1c-1.2-0.5-2.4-0.7-3.7-0.7l0,0c-1.3,0-2.5,0.2-3.7,0.7s-2.2,1.2-3.1,2.1l0,0
						c-0.9,0.9-1.6,1.9-2.1,3.1s-0.7,2.4-0.7,3.7l0,0c0,1.3,0.2,2.5,0.7,3.7s1.2,2.2,2.1,3.1l0,0c0.9,0.9,2,1.6,3.1,2.1
						s2.4,0.7,3.7,0.7l0,0c1.3,0,2.5-0.2,3.7-0.7s2.2-1.2,3.1-2.1l0,0c1.2-1.3,2.1-2.8,2.5-4.4l0,0h-12.8l1.2-4.8
						C154.1,41.9,170.6,41.9,170.6,41.9z M178.1,30.5L178.1,30.5v27.6h-4.7V30.5H178.1z M197.8,30.5L197.8,30.5l12.5,27.6h-5.2
						l-2.1-4.7l0,0l-2.1-4.8l0,0l-5.6-12.4l-5.7,12.5h7.2l2.1,4.8h-11.4l-2.1,4.7h-5.2l12.4-27.7H197.8z"/>
				</g>
				<g transform="translate(0,14.910000038146972)">
					<g transform="scale(1)">
						<path class="st4" d="M61,50.1L61,50.1h5.2v27.6h-4.8V58.1l-9.1,14.1l-9.1-14.1v19.6h-4.7V50.1h5.2l8.7,13.4L61,50.1z
							 M87.6,54.9L87.6,54.9H73.7v6.7H84l1.2,4.7H73.7V73h13.9v4.7H69V50.1h18.6V54.9z M106.4,50.1L106.4,50.1h4.7v27.6H106
							L94.9,58.8v18.9h-4.8V50.1h5.1L106.3,69V50.1H106.4z M134.2,50.2L134.2,50.2v4.7h-8.1v22.9h-4.7V54.9h-8.1v-4.7h8.1h4.7H134.2
							z M147.2,50.2L147.2,50.2l12.5,27.6h-5.2l-2.1-4.7l0,0l-2.1-4.8l0,0l-5.7-12.4L139,68.3h7.2l2.1,4.8h-11.5l-2.1,4.7h-5.1
							l12.5-27.6C142.1,50.2,147.2,50.2,147.2,50.2z M166.2,73L166.2,73H177v4.7h-10.8h-4.8V73V50.1h4.8V73z M203.4,50.2L203.4,50.2
							h4.8v27.6h-4.8V66.3h-11.5v11.5h-4.7V50.2h4.7v11.4h11.5V50.2z M229.5,54.9L229.5,54.9h-13.9v6.7h10.3l1.2,4.7h-11.5V73h13.8
							v4.7h-18.6V50.1h18.6L229.5,54.9L229.5,54.9z M248.7,50.2L248.7,50.2l12.5,27.6H256l-2.1-4.7l0,0l-2.1-4.8l0,0l-5.6-12.4
							l-5.6,12.4h7.2l2.1,4.8h-11.5l-2.1,4.7h-5.2l12.5-27.6C243.6,50.2,248.7,50.2,248.7,50.2z M267.7,73L267.7,73h10.9v4.7h-10.8
							h-4.7V73V50.1h4.7V73H267.7z M295,50.2L295,50.2v4.7h-8.1v22.9h-4.7V54.9h-8.1v-4.7h8.1h4.7H295z M313.4,50.2L313.4,50.2h4.7
							v27.6h-4.7V66.3h-11.5v11.5h-4.8V50.2h4.8v11.4h11.5V50.2z"/>
					</g>
				</g>
			</g>
		</g>
		<g transform="translate(0.5573959350585938,34.25380096435547)">
			<g>
				<g>
					<rect x="44.7" y="80.5" class="st5" width="316.1" height="29.7"/>
				</g>
				<g transform="translate(5,2)">
					<g transform="scale(1, 1)">
						<g transform="scale(1)">
							<path class="st6" d="M52.8,103.3c-0.4,0-0.7-0.1-0.9-0.4c-0.2-0.2-0.4-0.5-0.4-0.9l0,0c0-0.2,0-0.3,0.1-0.6l0,0l7.2-17
								c0.2-0.3,0.4-0.6,0.6-0.8c0.3-0.2,0.6-0.3,1-0.3l0,0h0.3c0.4,0,0.7,0.1,1,0.3c0.3,0.2,0.5,0.5,0.6,0.8l0,0l7.2,17
								c0.1,0.2,0.1,0.4,0.1,0.6l0,0c0,0.4-0.1,0.7-0.4,0.9c-0.2,0.3-0.5,0.4-0.9,0.4l0,0c-0.3,0-0.5-0.1-0.7-0.2
								c-0.2-0.1-0.4-0.3-0.5-0.6l0,0l-1.8-4.4h-9.6l-1.8,4.4c-0.1,0.3-0.3,0.4-0.5,0.6C53.3,103.2,53,103.3,52.8,103.3L52.8,103.3z
								 M60.6,86.6l-3.8,9.2h7.6L60.6,86.6z M84.5,103.5c-1.9,0-3.6-0.4-5.1-1.2s-2.7-2-3.5-3.5c-0.9-1.5-1.3-3.3-1.3-5.4l0,0
								c0-2.1,0.4-3.8,1.3-5.4c0.9-1.5,2-2.7,3.5-3.5c1.5-0.8,3.2-1.2,5.1-1.2l0,0c1.3,0,2.4,0.2,3.4,0.5c1,0.3,2,0.7,3,1.3l0,0
								c0.4,0.2,0.6,0.6,0.6,1.1l0,0c0,0.3-0.1,0.5-0.3,0.8c-0.2,0.2-0.5,0.3-0.8,0.3l0,0c-0.2,0-0.4,0-0.5-0.1l0,0
								c-0.8-0.4-1.6-0.8-2.4-1c-0.8-0.2-1.7-0.3-2.8-0.3l0,0c-1.6,0-3,0.3-4.1,1c-1.1,0.7-2,1.6-2.6,2.8c-0.6,1.2-0.8,2.5-0.8,3.9
								l0,0c0,1.5,0.3,2.8,0.8,4c0.6,1.1,1.4,2.1,2.6,2.7c1.1,0.7,2.5,1,4.1,1l0,0c1,0,2-0.1,2.8-0.4c0.8-0.2,1.6-0.5,2.4-1l0,0
								c0.1-0.1,0.3-0.1,0.5-0.1l0,0c0.3,0,0.6,0.1,0.8,0.3c0.2,0.2,0.3,0.5,0.3,0.8l0,0c0,0.5-0.2,0.8-0.6,1.1l0,0
								c-1,0.6-2,1-3,1.3C87,103.3,85.8,103.5,84.5,103.5L84.5,103.5z M105.9,103.5c-1.9,0-3.6-0.4-5.1-1.2s-2.7-2-3.5-3.5
								c-0.9-1.5-1.3-3.3-1.3-5.4l0,0c0-2.1,0.4-3.8,1.3-5.4c0.9-1.5,2-2.7,3.5-3.5c1.5-0.8,3.2-1.2,5.1-1.2l0,0
								c1.3,0,2.4,0.2,3.4,0.5c1,0.3,2,0.7,3,1.3l0,0c0.4,0.2,0.6,0.6,0.6,1.1l0,0c0,0.3-0.1,0.5-0.3,0.8c-0.2,0.2-0.5,0.3-0.8,0.3
								l0,0c-0.2,0-0.4,0-0.5-0.1l0,0c-0.8-0.4-1.6-0.8-2.4-1c-0.8-0.2-1.7-0.3-2.8-0.3l0,0c-1.6,0-3,0.3-4.1,1
								c-1.1,0.7-2,1.6-2.6,2.8c-0.6,1.2-0.8,2.5-0.8,3.9l0,0c0,1.5,0.3,2.8,0.8,4c0.6,1.1,1.4,2.1,2.6,2.7c1.1,0.7,2.5,1,4.1,1l0,0
								c1,0,2-0.1,2.8-0.4c0.8-0.2,1.6-0.5,2.4-1l0,0c0.1-0.1,0.3-0.1,0.5-0.1l0,0c0.3,0,0.6,0.1,0.8,0.3c0.2,0.2,0.3,0.5,0.3,0.8
								l0,0c0,0.5-0.2,0.8-0.6,1.1l0,0c-1,0.6-2,1-3,1.3C108.4,103.3,107.2,103.5,105.9,103.5L105.9,103.5z M120.5,103.2
								c-0.4,0-0.7-0.1-0.9-0.4c-0.2-0.2-0.4-0.5-0.4-0.9l0,0V84.8c0-0.4,0.1-0.7,0.4-0.9c0.3-0.3,0.6-0.4,0.9-0.4l0,0h11.3
								c0.3,0,0.6,0.1,0.9,0.4c0.2,0.2,0.4,0.5,0.4,0.9l0,0c0,0.3-0.1,0.6-0.4,0.8c-0.2,0.2-0.5,0.3-0.9,0.3l0,0h-10v6.3h9
								c0.3,0,0.6,0.1,0.8,0.4c0.2,0.2,0.4,0.5,0.4,0.8l0,0c0,0.3-0.1,0.6-0.4,0.8c-0.2,0.2-0.5,0.4-0.8,0.4l0,0h-9v6.3h10
								c0.3,0,0.6,0.1,0.9,0.4c0.2,0.2,0.4,0.5,0.4,0.9l0,0c0,0.3-0.1,0.6-0.4,0.8c-0.2,0.2-0.5,0.3-0.9,0.3l0,0L120.5,103.2
								L120.5,103.2z M145.8,103.5c-2.4,0-4.6-0.5-6.7-1.4l0,0c-0.2-0.1-0.4-0.2-0.6-0.4c-0.2-0.2-0.2-0.5-0.2-0.7l0,0
								c0-0.3,0.1-0.6,0.3-0.8c0.2-0.2,0.5-0.4,0.8-0.4l0,0c0.2,0,0.4,0,0.5,0.1l0,0c1.7,0.8,3.6,1.2,5.6,1.2l0,0
								c3.3,0,4.9-1.1,4.9-3.2l0,0c0-0.6-0.2-1-0.6-1.4c-0.4-0.4-0.9-0.7-1.6-0.9c-0.6-0.2-1.5-0.5-2.7-0.8l0,0
								c-1.5-0.4-2.8-0.8-3.7-1.2s-1.7-0.9-2.4-1.6c-0.7-0.7-1-1.7-1-2.9l0,0c0-1.1,0.3-2,0.8-2.9c0.6-0.9,1.4-1.6,2.5-2.1
								c1.1-0.5,2.4-0.8,4-0.8l0,0c2.1,0,3.9,0.3,5.6,0.9l0,0c0.5,0.2,0.8,0.6,0.8,1.1l0,0c0,0.3-0.1,0.6-0.3,0.8
								c-0.2,0.2-0.5,0.4-0.8,0.4l0,0c-0.1,0-0.3,0-0.4-0.1l0,0c-1.5-0.5-3-0.8-4.6-0.8l0,0c-1.5,0-2.7,0.3-3.6,0.8
								c-0.9,0.6-1.4,1.4-1.4,2.4l0,0c0,0.7,0.2,1.2,0.7,1.6c0.4,0.4,1,0.8,1.7,1c0.7,0.2,1.6,0.5,2.7,0.8l0,0
								c1.5,0.4,2.7,0.7,3.6,1.1c0.9,0.3,1.7,0.9,2.3,1.6c0.7,0.8,1,1.8,1,3.1l0,0c0,1.1-0.3,2-0.9,2.8c-0.6,0.8-1.4,1.5-2.5,2
								C148.5,103.2,147.2,103.5,145.8,103.5L145.8,103.5z M165.6,103.5c-2.4,0-4.6-0.5-6.7-1.4l0,0c-0.2-0.1-0.4-0.2-0.6-0.4
								c-0.2-0.2-0.2-0.5-0.2-0.7l0,0c0-0.3,0.1-0.6,0.3-0.8s0.5-0.4,0.8-0.4l0,0c0.2,0,0.4,0,0.5,0.1l0,0c1.7,0.8,3.6,1.2,5.6,1.2
								l0,0c3.3,0,4.9-1.1,4.9-3.2l0,0c0-0.6-0.2-1-0.6-1.4c-0.4-0.4-0.9-0.7-1.6-0.9c-0.6-0.2-1.5-0.5-2.7-0.8l0,0
								c-1.5-0.4-2.8-0.8-3.7-1.2s-1.7-0.9-2.4-1.6c-0.7-0.7-1-1.7-1-2.9l0,0c0-1.1,0.3-2,0.8-2.9s1.4-1.6,2.5-2.1s2.4-0.8,4-0.8
								l0,0c2.1,0,3.9,0.3,5.6,0.9l0,0c0.5,0.2,0.8,0.6,0.8,1.1l0,0c0,0.3-0.1,0.6-0.3,0.8c-0.2,0.2-0.5,0.4-0.8,0.4l0,0
								c-0.1,0-0.3,0-0.4-0.1l0,0c-1.5-0.5-3-0.8-4.5-0.8l0,0c-1.5,0-2.7,0.3-3.6,0.8c-0.9,0.6-1.4,1.4-1.4,2.4l0,0
								c0,0.7,0.2,1.2,0.7,1.6c0.4,0.4,1,0.8,1.7,1c0.7,0.2,1.6,0.5,2.7,0.8l0,0c1.5,0.4,2.7,0.7,3.6,1.1c0.9,0.3,1.7,0.9,2.3,1.6
								c0.7,0.8,1,1.8,1,3.1l0,0c0,1.1-0.3,2-0.9,2.8c-0.6,0.8-1.4,1.5-2.5,2C168.2,103.2,167,103.5,165.6,103.5L165.6,103.5z
								 M188.7,103.3c-0.4,0-0.7-0.1-0.9-0.4c-0.2-0.2-0.4-0.5-0.4-0.9l0,0c0-0.2,0-0.3,0.1-0.6l0,0l7.2-17c0.2-0.3,0.4-0.6,0.6-0.8
								c0.3-0.2,0.6-0.3,1-0.3l0,0h0.3c0.4,0,0.7,0.1,1,0.3c0.3,0.2,0.5,0.5,0.6,0.8l0,0l7.2,17c0.1,0.2,0.1,0.4,0.1,0.6l0,0
								c0,0.4-0.1,0.7-0.4,0.9c-0.2,0.3-0.5,0.4-0.9,0.4l0,0c-0.3,0-0.5-0.1-0.7-0.2c-0.2-0.1-0.4-0.3-0.5-0.6l0,0l-1.8-4.4h-9.6
								l-1.8,4.4c-0.1,0.3-0.3,0.4-0.5,0.6C189.2,103.2,189,103.3,188.7,103.3L188.7,103.3z M196.6,86.6l-3.8,9.2h7.6L196.6,86.6z
								 M214,103.2c-0.5,0-0.9-0.2-1.3-0.5c-0.3-0.3-0.5-0.8-0.5-1.3l0,0V84.6c0-0.4,0.1-0.7,0.4-0.9c0.2-0.3,0.5-0.4,0.9-0.4l0,0
								c0.4,0,0.7,0.1,0.9,0.4c0.3,0.3,0.4,0.6,0.4,0.9l0,0v16h9.2c0.3,0,0.7,0.1,0.9,0.4c0.3,0.3,0.4,0.6,0.4,0.9l0,0
								c0,0.4-0.1,0.7-0.4,0.9c-0.3,0.3-0.6,0.4-0.9,0.4l0,0C224,103.2,214,103.2,214,103.2z M232.6,103.2c-0.5,0-0.9-0.2-1.3-0.5
								c-0.3-0.3-0.5-0.8-0.5-1.3l0,0V84.6c0-0.4,0.1-0.7,0.4-0.9c0.2-0.3,0.5-0.4,0.9-0.4l0,0c0.4,0,0.7,0.1,0.9,0.4
								c0.3,0.3,0.4,0.6,0.4,0.9l0,0v16h9.2c0.4,0,0.7,0.1,0.9,0.4c0.2,0.3,0.4,0.6,0.4,0.9l0,0c0,0.4-0.1,0.7-0.4,0.9
								c-0.3,0.3-0.6,0.4-0.9,0.4l0,0C242.6,103.2,232.6,103.2,232.6,103.2z M250.7,103.3c-0.3,0-0.6-0.1-0.9-0.4
								c-0.3-0.2-0.4-0.5-0.4-0.9l0,0V84.6c0-0.4,0.1-0.7,0.4-0.9c0.3-0.3,0.5-0.4,0.9-0.4l0,0c0.4,0,0.7,0.1,0.9,0.4
								c0.3,0.3,0.4,0.6,0.4,0.9l0,0V102c0,0.4-0.1,0.7-0.4,0.9C251.4,103.2,251.1,103.3,250.7,103.3L250.7,103.3z M259.8,103.3
								c-0.4,0-0.7-0.1-0.9-0.4c-0.2-0.2-0.4-0.5-0.4-0.9l0,0c0-0.2,0-0.3,0.1-0.6l0,0l7.2-17c0.2-0.3,0.4-0.6,0.6-0.8
								c0.3-0.2,0.6-0.3,1-0.3l0,0h0.3c0.4,0,0.7,0.1,1,0.3c0.3,0.2,0.5,0.5,0.6,0.8l0,0l7.2,17c0.1,0.2,0.1,0.4,0.1,0.6l0,0
								c0,0.4-0.1,0.7-0.4,0.9c-0.2,0.3-0.5,0.4-0.9,0.4l0,0c-0.3,0-0.5-0.1-0.7-0.2c-0.2-0.1-0.4-0.3-0.5-0.6l0,0l-1.8-4.4h-9.6
								l-1.8,4.4c-0.1,0.3-0.3,0.4-0.5,0.6C260.3,103.2,260,103.3,259.8,103.3L259.8,103.3z M267.6,86.6l-3.8,9.2h7.6L267.6,86.6z
								 M284.5,103.3c-0.4,0-0.7-0.1-0.9-0.4c-0.2-0.2-0.4-0.5-0.4-0.9l0,0V85.2c0-0.5,0.2-1,0.5-1.3c0.4-0.4,0.8-0.6,1.3-0.6l0,0
								h0.4c0.6,0,1.1,0.3,1.6,0.8l0,0l10.9,15.7V84.6c0-0.4,0.1-0.7,0.4-0.9c0.2-0.3,0.5-0.4,0.9-0.4l0,0c0.4,0,0.7,0.1,0.9,0.4
								c0.3,0.3,0.4,0.6,0.4,0.9l0,0v16.8c0,0.5-0.2,0.9-0.5,1.3c-0.4,0.4-0.8,0.5-1.3,0.5l0,0h-0.3c-0.3,0-0.6-0.1-0.8-0.2
								c-0.2-0.1-0.5-0.3-0.7-0.5l0,0L286,86.7V102c0,0.4-0.1,0.7-0.4,0.9C285.2,103.2,284.9,103.3,284.5,103.3L284.5,103.3z
								 M317,103.5c-1.9,0-3.6-0.4-5.1-1.2s-2.7-2-3.5-3.5s-1.3-3.3-1.3-5.4l0,0c0-2.1,0.4-3.8,1.3-5.4c0.9-1.5,2-2.7,3.5-3.5
								c1.5-0.8,3.2-1.2,5.1-1.2l0,0c1.3,0,2.4,0.2,3.4,0.5c1,0.3,2,0.7,3,1.3l0,0c0.4,0.2,0.6,0.6,0.6,1.1l0,0
								c0,0.3-0.1,0.5-0.3,0.8c-0.2,0.2-0.5,0.3-0.8,0.3l0,0c-0.2,0-0.4,0-0.5-0.1l0,0c-0.8-0.4-1.6-0.8-2.4-1
								c-0.8-0.2-1.7-0.3-2.7-0.3l0,0c-1.6,0-3,0.3-4.1,1c-1.1,0.7-2,1.6-2.6,2.8c-0.6,1.2-0.9,2.5-0.9,3.9l0,0c0,1.5,0.3,2.8,0.9,4
								c0.6,1.1,1.4,2.1,2.6,2.7c1.1,0.7,2.5,1,4.1,1l0,0c1,0,1.9-0.1,2.7-0.4c0.8-0.2,1.6-0.5,2.4-1l0,0c0.2-0.1,0.3-0.1,0.5-0.1
								l0,0c0.3,0,0.6,0.1,0.8,0.3c0.2,0.2,0.3,0.5,0.3,0.8l0,0c0,0.5-0.2,0.8-0.6,1.1l0,0c-1,0.6-2,1-3,1.3
								C319.4,103.3,318.2,103.5,317,103.5L317,103.5z M331.5,103.2c-0.4,0-0.7-0.1-0.9-0.4c-0.3-0.2-0.4-0.5-0.4-0.9l0,0V84.8
								c0-0.4,0.1-0.7,0.4-0.9c0.2-0.3,0.5-0.4,0.9-0.4l0,0h11.3c0.3,0,0.6,0.1,0.9,0.4c0.2,0.2,0.4,0.5,0.4,0.9l0,0
								c0,0.3-0.1,0.6-0.4,0.8c-0.2,0.2-0.5,0.3-0.9,0.3l0,0h-10v6.3h9c0.3,0,0.6,0.1,0.9,0.4c0.2,0.2,0.4,0.5,0.4,0.8l0,0
								c0,0.3-0.1,0.6-0.4,0.8c-0.2,0.2-0.5,0.4-0.9,0.4l0,0h-9v6.3h10c0.3,0,0.6,0.1,0.9,0.4c0.2,0.2,0.4,0.5,0.4,0.9l0,0
								c0,0.3-0.1,0.6-0.4,0.8c-0.2,0.2-0.5,0.3-0.9,0.3l0,0L331.5,103.2L331.5,103.2z"/>
						</g>
					</g>
				</g>
			</g>
		</g>
	</g>
</g>
</svg>
